<svg xmlns="http://www.w3.org/2000/svg" width="64" height="64" viewBox="0 0 64 64" role="img" aria-label="La Palmera">
  <defs>
    <linearGradient id="lpw" x1="0" y1="0" x2="0" y2="1">
      <stop offset="0" stop-color="#a06a3b"/>
      <stop offset=".55" stop-color="#8a5a33"/>
      <stop offset="1" stop-color="#7c4a22"/>
    </linearGradient>
  </defs>
  <rect width="64" height="64" rx="14" fill="#071b16"/>
  <path d="M 32 22 C 20 16 10 12 4 18 C 12 20 22 21 32 22 Z" fill="#2e8b57"/>
  <path d="M 32 22 C 24 10 15 4 9 4 C 17 10 26 15 32 22 Z" fill="#3ca96f"/>
  <path d="M 32 22 C 28 8 27 2 32 0 C 37 2 36 8 32 22 Z" fill="#3ca96f"/>
  <path d="M 32 22 C 40 10 49 4 55 4 C 47 10 38 15 32 22 Z" fill="#2e8b57"/>
  <path d="M 32 22 C 44 16 54 12 60 18 C 52 20 42 21 32 22 Z" fill="#2e8b57"/>
  <path d="M 29 22 L 35 22 L 33.2 44 L 30.8 44 Z" fill="#8a5a33" stroke="#5b3317" stroke-width=".8"/>
  <circle cx="26.5" cy="25" r="2" fill="#6d4420"/>
  <circle cx="37.5" cy="24" r="2" fill="#6d4420"/>
  <rect x="13" y="40" width="38" height="14" rx="4" fill="url(#lpw)" stroke="#4a2a12" stroke-width="1.2"/>
  <text x="32.4" y="51" text-anchor="middle" font-family="Arial Black, Arial, sans-serif" font-weight="900" font-size="6.5" letter-spacing=".5" fill="#4a2a12" opacity=".4">LP</text>
  <text x="32" y="50.5" text-anchor="middle" font-family="Arial Black, Arial, sans-serif" font-weight="900" font-size="6.5" letter-spacing=".5" fill="#fdf6e3">LP</text>
  <g>
    <ellipse cx="47" cy="49" rx="9.5" ry="8.5" fill="#2b2420"/>
    <ellipse cx="43.5" cy="47" rx="3.6" ry="7" fill="#2b2420" transform="rotate(18 43.5 47)"/>
    <ellipse cx="54.5" cy="51" rx="6" ry="4.5" fill="#b5793c"/>
    <ellipse cx="56.5" cy="55" rx="1.8" ry="2.4" fill="#e07a7a"/>
    <path d="M 52.5 52.5 Q 56 54.5 59 52.5" stroke="#1a1512" stroke-width="1.1" fill="none" stroke-linecap="round"/>
    <circle cx="59.5" cy="50" r="2" fill="#1a1512"/>
    <circle cx="48.5" cy="46.5" r="2.2" fill="#fff"/>
    <circle cx="49" cy="46.8" r="1.1" fill="#1a1512"/>
    <circle cx="49.3" cy="46.2" r=".4" fill="#fff"/>
    <ellipse cx="47.8" cy="42.5" rx="3.4" ry="1.6" fill="#b5793c" transform="rotate(-10 47.8 42.5)"/>
  </g>
</svg>